<?xml version="1.0"?>
<svg xmlns="http://www.w3.org/2000/svg" width="1280" height="720" viewBox="0 0 1280 720" role="img" aria-labelledby="title desc">
  <title id="title">Accepted Video Style Editor layout at 1280 by 720</title>
  <desc id="desc">One acceptable same-window composition: Style sits beside the Okay Karaoke Studio identity, the inspector starts with Song details, and project lyric controls share the workspace with a fixed sixteen-by-nine Live Preview. The inspector may yield in production to preserve a practical preview.</desc>
  <defs>
    <linearGradient id="stage" x1="0" y1="0" x2="1" y2="1">
      <stop stop-color="#322242"/>
      <stop offset="1" stop-color="#1e1629"/>
    </linearGradient>
    <style>
      text{font-family:-apple-system,BlinkMacSystemFont,"Segoe UI",sans-serif;fill:#302b38}.label{font-size:11px;font-weight:700}.small{font-size:9px;fill:#62576e}.tiny{font-size:7px;fill:#72677c;font-weight:700;letter-spacing:.08em}.heading{font-size:16px;font-weight:800}.panel{fill:#fff;stroke:#d9cce9}.field{fill:#fff;stroke:#9a83ad}.soft{fill:#f3edf9;stroke:#d9cce9}.button{fill:#ff8a2b;stroke:#e66f12}.buttonText{fill:#3c200e;font-size:9px;font-weight:800}.stageMuted{fill:#b4acbd;font-size:21px;font-weight:800}.stageSmall{fill:#c1bbc7;font-size:7px;font-weight:700}
    </style>
  </defs>
  <rect width="1280" height="720" fill="#f8f6fb"/>
  <rect width="1280" height="58" fill="#fff"/>
  <line x1="0" y1="58" x2="1280" y2="58" stroke="#ebe4f2"/>
  <rect x="16" y="14" width="30" height="30" rx="9" fill="#aa8dde" stroke="#d8c9e9"/>
  <path d="M25 21h13v16H25z" fill="#fbf9fd" transform="rotate(-5 31 29)"/>
  <text x="56" y="25" class="label">Okay</text>
  <text x="56" y="39" class="tiny">KARAOKE STUDIO</text>
  <rect x="142" y="14" width="92" height="30" rx="9" fill="#f1eafa" stroke="#9b78cf"/>
  <path d="M152 23h14m-14 6h14m-14 6h14m-10-15v6m6 0v6m-8 0v6" fill="none" stroke="#70469e"/>
  <text x="198" y="33" text-anchor="middle" class="label" fill="#70469e">Style</text>
  <text x="510" y="33" class="small">Untitled song &#xB7; Editing</text>
  <rect x="1000" y="14" width="58" height="30" rx="8" class="soft"/>
  <text x="1029" y="33" text-anchor="middle" class="small">Save</text>
  <rect x="1067" y="14" width="84" height="30" rx="8" class="soft"/>
  <text x="1109" y="33" text-anchor="middle" class="small">Workflow</text>
  <rect x="1160" y="14" width="104" height="30" rx="9" class="button"/>
  <text x="1212" y="33" text-anchor="middle" class="buttonText">Export</text>
  <rect y="58" width="270" height="592" fill="#fcfbfd"/>
  <line x1="270" y1="58" x2="270" y2="650" stroke="#ebe4f2"/>
  <text x="16" y="84" class="tiny">SONG DETAILS</text>
  <text x="16" y="106" class="small">Title</text>
  <rect x="16" y="113" width="238" height="31" rx="8" class="field"/>
  <text x="27" y="133" class="small">Untitled song</text>
  <text x="16" y="166" class="small">Artist</text>
  <rect x="16" y="173" width="238" height="31" rx="8" class="field"/>
  <text x="27" y="193" class="small">Unknown artist</text>
  <text x="16" y="233" class="small">Global offset</text>
  <rect x="158" y="215" width="96" height="31" rx="8" class="field"/>
  <text x="199" y="235" class="small">0 ms</text>
  <line x1="16" y1="265" x2="254" y2="265" stroke="#ebe4f2"/>
  <text x="16" y="292" class="tiny">BACKING TRACK</text>
  <rect x="16" y="302" width="238" height="58" rx="9" class="soft"/>
  <text x="29" y="326" class="label">Attach an audio file</text>
  <text x="29" y="344" class="tiny">LINKED MEDIA</text>
  <text x="16" y="394" class="tiny">VOCAL TRACK</text>
  <rect x="16" y="404" width="238" height="92" rx="12" fill="#f3edf9" stroke="#9b78cf"/>
  <circle cx="44" cy="432" r="17" fill="#ff8a2b"/>
  <text x="73" y="430" class="label">Lead Vocal</text>
  <text x="73" y="447" class="tiny">0 / 0 TIMED</text>
  <rect x="73" y="457" width="168" height="29" rx="8" class="field"/>
  <circle cx="88" cy="471" r="8" fill="#ff8a2b"/>
  <text x="104" y="475" class="small">Sung</text>
  <rect x="270" y="58" width="1010" height="592" fill="#f8f6fb"/>
  <rect x="278" y="66" width="410" height="576" rx="14" class="panel"/>
  <text x="296" y="88" class="tiny">VIDEO STYLE &#xB7; PROJECT LYRICS</text>
  <text x="296" y="111" class="heading">Project lyrics</text>
  <text x="664" y="98" text-anchor="end" class="tiny">DRAFT</text>
  <line x1="278" y1="124" x2="688" y2="124" stroke="#ebe4f2"/>
  <g class="small">
    <rect x="294" y="140" width="74" height="28" rx="8" class="soft"/>
    <text x="331" y="158" text-anchor="middle">Background</text>
    <rect x="374" y="140" width="89" height="28" rx="8" fill="#f1eafa" stroke="#9b78cf"/>
    <text x="418" y="158" text-anchor="middle" fill="#70469e">Project lyrics</text>
    <rect x="469" y="140" width="80" height="28" rx="8" class="soft"/>
    <text x="509" y="158" text-anchor="middle">Title/frame</text>
    <rect x="555" y="140" width="55" height="28" rx="8" class="soft"/>
    <text x="582" y="158" text-anchor="middle">Vocal</text>
    <rect x="616" y="140" width="56" height="28" rx="8" class="soft"/>
    <text x="644" y="158" text-anchor="middle">Templates</text>
  </g>
  <text x="296" y="198" class="small">Typeface</text>
  <rect x="296" y="205" width="376" height="34" rx="8" class="field"/>
  <text x="310" y="227" class="label">System UI</text>
  <path d="M650 218l6 6 6-6" fill="none" stroke="#72677c"/>
  <text x="296" y="268" class="small">Face</text>
  <rect x="296" y="277" width="68" height="31" rx="8" class="soft"/>
  <text x="330" y="297" text-anchor="middle" class="small">Regular</text>
  <rect x="372" y="277" width="82" height="31" rx="8" fill="#f1eafa" stroke="#9b78cf"/>
  <text x="413" y="297" text-anchor="middle" class="label" fill="#70469e">Extra Bold</text>
  <rect x="462" y="277" width="59" height="31" rx="8" class="soft"/>
  <text x="491" y="297" text-anchor="middle" class="small">Italic</text>
  <text x="296" y="337" class="small">Size</text>
  <rect x="296" y="345" width="112" height="34" rx="8" class="field"/>
  <text x="310" y="367" class="label">82 px</text>
  <path d="M386 357l6 6 6-6" fill="none" stroke="#72677c"/>
  <text x="296" y="410" class="small">Sung color</text>
  <rect x="296" y="419" width="178" height="36" rx="8" class="field"/>
  <circle cx="316" cy="437" r="10" fill="#ff8a2b"/>
  <text x="335" y="441" class="small">#FF8A2B</text>
  <text x="494" y="410" class="small">Unsung color</text>
  <rect x="494" y="419" width="178" height="36" rx="8" class="field"/>
  <circle cx="514" cy="437" r="10" fill="#72687d"/>
  <text x="533" y="441" class="small">#72687D</text>
  <rect x="296" y="482" width="376" height="61" rx="9" class="soft"/>
  <text x="312" y="506" class="label">Previewing project lyrics</text>
  <text x="312" y="525" class="small">Representative text appears on the video stage.</text>
  <line x1="278" y1="583" x2="688" y2="583" stroke="#ebe4f2"/>
  <rect x="493" y="598" width="72" height="31" rx="9" class="soft"/>
  <text x="529" y="618" text-anchor="middle" class="small">Cancel</text>
  <rect x="573" y="598" width="99" height="31" rx="9" class="button"/>
  <text x="622" y="618" text-anchor="middle" class="buttonText">Apply &amp; close</text>
  <rect x="696" y="66" width="576" height="576" rx="14" class="panel"/>
  <text x="714" y="88" class="tiny">STAGE MONITOR</text>
  <text x="714" y="111" class="heading">Live Preview &#xB7; Design mode</text>
  <rect x="720" y="140" width="528" height="297" rx="10" fill="url(#stage)"/>
  <rect x="755" y="173" width="458" height="231" rx="3" fill="none" stroke="#473c54" stroke-width="2"/>
  <text x="770" y="191" class="stageSmall">OKAY / STUDIO</text>
  <text x="1197" y="191" text-anchor="end" class="stageSmall">00:00.000</text>
  <text x="984" y="304" text-anchor="middle" class="stageMuted">
    <tspan fill="#ff8a2b">Sing the first words</tspan>
    <tspan> and see the rest</tspan>
  </text>
  <text x="770" y="386" class="stageSmall">UNKNOWN ARTIST &#xB7; UNTITLED SONG</text>
  <rect x="714" y="464" width="540" height="70" rx="9" class="soft"/>
  <text x="730" y="489" class="label">Fixed logical video stage</text>
  <text x="730" y="509" class="small">Representative project lyrics use the selected face, size, Sung, and Unsung.</text>
  <rect x="714" y="550" width="540" height="64" rx="9" fill="#fff8f1" stroke="#f2d2b9"/>
  <text x="730" y="576" class="label">Typography changes are not saved yet</text>
  <text x="730" y="595" class="small">Apply once or cancel the whole style session.</text>
  <rect y="650" width="1280" height="70" fill="#fff"/>
  <line x1="0" y1="650" x2="1280" y2="650" stroke="#ebe4f2"/>
  <rect x="16" y="659" width="220" height="52" rx="11" class="soft"/>
  <text x="34" y="683" class="label">Start sync</text>
  <text x="34" y="700" class="tiny">CLOSE STYLE TO ENABLE</text>
  <circle cx="505" cy="685" r="16" fill="#f3edf9"/>
  <rect x="500" y="680" width="10" height="10" rx="2" fill="#70469e"/>
  <circle cx="566" cy="685" r="22" fill="#ff8a2b"/>
  <path d="M560 676l16 9-16 9z" fill="#3c200e"/>
  <text x="618" y="689" class="label">0:00.000 / 3:00.000</text>
  <text x="1100" y="689" class="small">1.0&#xD7; &#xB7; Volume</text>
</svg>
